<svg xmlns="http://www.w3.org/2000/svg" xmlns:xlink="http://www.w3.org/1999/xlink" viewBox="0 0 200 200" width="400" height="400">
  <g transform="scale(-1 -1) translate(-120 -120)"><path data-k="0" data-role="transform" fill="#00f5d4" stroke="#222" stroke-width="2" d="M80 50 L79.74 53.92 L78.98 57.76 L77.72 61.48 L75.98 65 L73.8 68.26 L71.21 71.21 L68.26 73.8 L65 75.98 L61.48 77.72 L57.76 78.98 L53.92 79.74 L50 80 L46.08 79.74 L42.24 78.98 L38.52 77.72 L35 75.98 L31.74 73.8 L28.79 71.21 L26.2 68.26 L24.02 65 L22.28 61.48 L21.02 57.76 L20.26 53.92 L20 50 L20.26 46.08 L21.02 42.24 L22.28 38.52 L24.02 35 L26.2 31.74 L28.79 28.79 L31.74 26.2 L35 24.02 L38.52 22.28 L42.24 21.02 L46.08 20.26 L50 20 L53.92 20.26 L57.76 21.02 L61.48 22.28 L65 24.02 L68.26 26.2 L71.21 28.79 L73.8 31.74 L75.98 35 L77.72 38.52 L78.98 42.24 L79.74 46.08Z"/></g>
  <path data-k="1" data-role="control" fill="#1b998b" d="M150 150 L152 150 L154 150 L156 150 L158 150 L160 150 L162 150 L164 150 L166 150 L168 150 L170 150 L172 150 L174 150 L176 150 L178 150 L180 150 L182 150 L184 150 L186 150 L188 150 L190 150 L190 152 L190 154 L190 156 L190 158 L190 160 L190 162 L190 164 L190 166 L190 168 L190 170 L190 172 L190 174 L190 176 L190 178 L190 180 L190 182 L190 184 L190 186 L190 188 L190 190 L188 190 L186 190 L184 190 L182 190 L180 190 L178 190 L176 190 L174 190 L172 190 L170 190 L168 190 L166 190 L164 190 L162 190 L160 190 L158 190 L156 190 L154 190 L152 190 L150 190 L150 188 L150 186 L150 184 L150 182 L150 180 L150 178 L150 176 L150 174 L150 172 L150 170 L150 168 L150 166 L150 164 L150 162 L150 160 L150 158 L150 156 L150 154 L150 152Z"/>
</svg>
